 http://img856.imageshack.us/img856/7928/kickass2010.jpg

Country.......: USA, United Kingdom
Genre.........: Comedy, Action, Adventure
Date release..: 12.03.2010 [World]
Director......: Matthew Vaughn
Writers.......: Jane Goldman, Matthew Vaughn
Duration......: 112 min.
More..........: http://www.imdb.com/title/tt1250777
Trailer.......: http://www.imdb.com/video/imdb/vi1572603673
Trailer.......:

Pilot :
A comic book fan decides to become a super hero, Batman, Superman, Spiderman. Orders a dress on ebay for pennies and strikes in the world to fight the evil cats and dogs. Will it be better than the other characters, or be stronger? learn to fly?

Cats :
Aaron Johnson 	... 	Dave Lizewski Kick-Ass
Garrett M. Brown 	... 	Mr. Lizewski
Clark Duke 	... 	Marty
Evan Peters 	... 	Todd
Deborah Twiss 	... 	Mrs. Zane
Lyndsy Fonseca 	... 	Katie Deauxma
Sophie Wu 	... 	Erika Cho
Elizabeth McGovern 	... 	Mrs. Lizewski
Christopher Mintz-Plasse 	... 	Chris D Amico Red Mist
Stu 'Large' Riley 	... 	Huge Goon (as Stu Riley)
Johnny Hopkins 	... 	1st Gang Kid
Ohene Cornelius 	... 	2nd Gang Kid
Mark Strong 	... 	Frank D'Amico
Michael Rispoli 	... 	Big Joe
Corey Johnson 	... 	Sporty Goon 

Data Technical :
!!! SAMPLE !!!
Audio.....: Lector Polish
Subtitles.: None
Format                           : AVI
Format/Info                      : Audio Video Interleave
File size                        : 322 MiB
Duration                         : 1h 52mn
Overall bit rate                 : 400 Kbps
Writing application              : VirtualDubMod 1.5.10.2 (build 2542/release)
Writing library                  : VirtualDubMod build 2542/release
Video
ID                               : 0
Format                           : MPEG-4 Visual
Format profile                   : Advanced Simple@L5
Format settings, BVOP            : Yes
Format settings, QPel            : No
Format settings, GMC             : No warppoints
Format settings, Matrix          : Default (H.263)
Muxing mode                      : Packed bitstream
Codec ID                         : XVID
Codec ID/Hint                    : XviD
Duration                         : 1h 52mn
Bit rate                         : 263 Kbps
Width                            : 640 pixels
Height                           : 360 pixels
Display aspect ratio             : 16:9
Frame rate                       : 25.000 fps
Color space                      : YUV
Chroma subsampling               : 4:2:0
Bit depth                        : 8 bits
Scan type                        : Progressive
Bits/(Pixel*Frame)               : 0.046
Stream size                      : 211 MiB (66%)
Writing library                  : XviD 1.2.1
Audio
ID                               : 1
Format                           : MPEG Audio
Format version                   : Version 1
Format profile                   : Layer 3
Mode                             : Joint stereo
Mode extension                   : MS Stereo
Codec ID                         : 55
Codec ID/Hint                    : MP3
Duration                         : 1h 52mn
Bit rate mode                    : Constant
Bit rate                         : 128 Kbps
Channel(s)                       : 2 channels
Sampling rate                    : 48.0 KHz
Stream size                      : 103 MiB (32%)
Alignment                        : Split accross interleaves
Interleave, duration             : 40 ms (1.00 video frame)
Interleave, preload duration     : 500 ms

Screen : 
http://img51.imageshack.us/img51/4307/kickass2010s4.jpg 
http://img43.imageshack.us/img43/2237/kickass2010s1.jpg 
http://img84.imageshack.us/img84/992/kickass2010s2.jpg 
http://img6.imageshack.us/img6/7672/kickass2010s3.jpg